<svg width="24" height="24" viewBox="0 0 24 24" fill="none" xmlns="http://www.w3.org/2000/svg">
<path fill-rule="evenodd" clip-rule="evenodd" d="M1.26471 2.85281C1.34594 2.44664 1.74106 2.18323 2.14723 2.26446L3.19659 2.47434C4.38184 2.71139 5.27335 3.69458 5.39363 4.8973L5.47889 5.7499H19.0544C21.0386 5.7499 22.4945 7.61463 22.0133 9.53963L20.8905 14.0307C20.4175 15.9226 18.7176 17.2499 16.7674 17.2499H7.77449C6.38244 17.2499 5.20994 16.2097 5.04408 14.8276L4.0546 6.5819L3.90107 5.04655C3.8464 4.49986 3.44117 4.05296 2.90242 3.94521L1.85306 3.73534C1.44689 3.6541 1.18348 3.25898 1.26471 2.85281ZM5.64552 7.2499L6.5334 14.6488C6.60879 15.2771 7.14174 15.7499 7.77449 15.7499H16.7674C18.0293 15.7499 19.1293 14.8911 19.4353 13.6669L20.5581 9.17583C20.8027 8.19755 20.0627 7.2499 19.0544 7.2499H5.64552Z" fill="#30333F"/>
<path d="M10 20C10 20.8284 9.32843 21.5 8.5 21.5C7.67157 21.5 7 20.8284 7 20C7 19.1716 7.67157 18.5 8.5 18.5C9.32843 18.5 10 19.1716 10 20Z" fill="#30333F"/>
<path d="M19 20C19 20.8284 18.3284 21.5 17.5 21.5C16.6716 21.5 16 20.8284 16 20C16 19.1716 16.6716 18.5 17.5 18.5C18.3284 18.5 19 19.1716 19 20Z" fill="#30333F"/>
</svg>
