<svg width="25" height="24" viewBox="0 0 25 24" fill="none" xmlns="http://www.w3.org/2000/svg">
<path fill-rule="evenodd" clip-rule="evenodd" d="M16.1833 4.3681C16.6257 3.61252 17.6063 3.36415 18.3734 3.81336L20.1279 4.84077C20.8951 5.28998 21.1583 6.26665 20.7158 7.02223L18.4949 10.815C18.2614 11.2138 17.6725 11.1923 17.4582 10.7773L16.6527 9.2171C16.5769 9.07035 16.4224 8.97987 16.2573 8.9856L14.5025 9.04655C14.0357 9.06277 13.7288 8.55964 13.9623 8.16087L16.1833 4.3681Z" fill="#FF9975"/>
<path fill-rule="evenodd" clip-rule="evenodd" d="M6.97635 4.4127C5.63448 4.98563 4.66602 6.63099 4.66602 8.79582C4.66602 13.0471 7.88874 17.2176 12.7365 20.0897C17.5842 17.2176 20.8069 13.0471 20.8069 8.79582C20.8069 6.63099 19.8384 4.98563 18.4966 4.4127C17.1915 3.85549 15.2662 4.20992 13.1097 6.62897C13.0148 6.73539 12.879 6.79625 12.7365 6.79625C12.5939 6.79625 12.4581 6.73539 12.3632 6.62897C10.2067 4.20992 8.2814 3.85549 6.97635 4.4127ZM12.7365 5.56187C10.556 3.31348 8.34889 2.73934 6.58368 3.49302C4.75447 4.27403 3.66602 6.37805 3.66602 8.79582C3.66602 13.6371 7.3599 18.1454 12.4867 21.102C12.6413 21.1912 12.8316 21.1912 12.9862 21.102C18.113 18.1454 21.8069 13.6371 21.8069 8.79582C21.8069 6.37805 20.7184 4.27403 18.8892 3.49302C17.124 2.73934 14.9169 3.31348 12.7365 5.56187Z" fill="#30333F"/>
<path d="M6.97635 4.4127L7.07452 4.64262L6.97635 4.4127ZM12.7365 20.0897L12.609 20.3048C12.6876 20.3514 12.7853 20.3514 12.8639 20.3048L12.7365 20.0897ZM18.4966 4.4127L18.5947 4.18278L18.4966 4.4127ZM13.1097 6.62897L12.9231 6.46261V6.46261L13.1097 6.62897ZM12.3632 6.62897L12.5498 6.46261V6.46261L12.3632 6.62897ZM12.7365 5.56187L12.557 5.73591C12.6041 5.78446 12.6688 5.81187 12.7365 5.81187C12.8041 5.81187 12.8688 5.78446 12.9159 5.73591L12.7365 5.56187ZM6.58368 3.49302L6.48551 3.2631V3.2631L6.58368 3.49302ZM12.4867 21.102L12.6116 20.8855L12.6116 20.8855L12.4867 21.102ZM12.9862 21.102L12.8613 20.8855L12.8613 20.8855L12.9862 21.102ZM18.8892 3.49302L18.9874 3.2631V3.2631L18.8892 3.49302ZM4.91602 8.79582C4.91602 6.6948 5.85408 5.16371 7.07452 4.64262L6.87818 4.18278C5.41489 4.80756 4.41602 6.56718 4.41602 8.79582H4.91602ZM12.8639 19.8747C8.05132 17.0233 4.91602 12.9199 4.91602 8.79582H4.41602C4.41602 13.1744 7.72616 17.4118 12.609 20.3048L12.8639 19.8747ZM20.5569 8.79582C20.5569 12.9199 17.4216 17.0233 12.609 19.8747L12.8639 20.3048C17.7467 17.4118 21.0569 13.1744 21.0569 8.79582H20.5569ZM18.3984 4.64262C19.6188 5.16371 20.5569 6.6948 20.5569 8.79582H21.0569C21.0569 6.56718 20.058 4.80756 18.5947 4.18278L18.3984 4.64262ZM13.2963 6.79533C15.4163 4.4172 17.233 4.14505 18.3984 4.64262L18.5947 4.18278C17.15 3.56594 15.116 4.00263 12.9231 6.46261L13.2963 6.79533ZM12.7365 7.04625C12.9503 7.04625 13.154 6.95496 13.2963 6.79533L12.9231 6.46261C12.8756 6.51582 12.8077 6.54625 12.7365 6.54625V7.04625ZM12.1766 6.79533C12.3189 6.95496 12.5226 7.04625 12.7365 7.04625V6.54625C12.6652 6.54625 12.5973 6.51582 12.5498 6.46261L12.1766 6.79533ZM7.07452 4.64262C8.2399 4.14505 10.0566 4.4172 12.1766 6.79533L12.5498 6.46261C10.3569 4.00263 8.3229 3.56594 6.87818 4.18278L7.07452 4.64262ZM12.9159 5.38782C10.6961 3.09876 8.38273 2.45306 6.48551 3.2631L6.68185 3.72294C8.31505 3.02563 10.416 3.5282 12.557 5.73591L12.9159 5.38782ZM6.48551 3.2631C4.53414 4.09627 3.41602 6.31529 3.41602 8.79582H3.91602C3.91602 6.44082 4.97481 4.45179 6.68185 3.72294L6.48551 3.2631ZM3.41602 8.79582C3.41602 13.7665 7.20006 18.3418 12.3618 21.3186L12.6116 20.8855C7.51974 17.949 3.91602 13.5076 3.91602 8.79582H3.41602ZM12.3618 21.3186C12.5937 21.4523 12.8792 21.4523 13.1111 21.3186L12.8613 20.8855C12.784 20.93 12.6889 20.93 12.6116 20.8855L12.3618 21.3186ZM13.1111 21.3186C18.2728 18.3418 22.0569 13.7665 22.0569 8.79582H21.5569C21.5569 13.5076 17.9532 17.949 12.8613 20.8855L13.1111 21.3186ZM22.0569 8.79582C22.0569 6.31529 20.9388 4.09627 18.9874 3.2631L18.7911 3.72294C20.4981 4.45179 21.5569 6.44082 21.5569 8.79582H22.0569ZM18.9874 3.2631C17.0902 2.45306 14.7768 3.09876 12.557 5.38782L12.9159 5.73591C15.0569 3.5282 17.1579 3.02563 18.7911 3.72294L18.9874 3.2631Z" fill="#30333F"/>
</svg>
